#!OML:ASF G:\JayActor3\Patient Classification 1\Patient 1\Session 5\male.ASF
:FULLY-SPECIFIED
:DEGREES
416
root 38.6004 17.6939 -6.1943 391.027 -86.0541 -375.305
lowerback 21.9825 -1.16475 5.12622
upperback 7.00774 -0.937478 -0.711361
thorax -4.67326 -0.629177 -3.43881
lowerneck 6.27865 -0.582448 3.5824
upperneck -21.6147 -0.544751 0.916757
head -7.69062 -0.837057 -0.228781
rclavicle 2.56929e-014 2.85753e-014
rhumerus -30.7262 -2.00851 -89.4381
rradius 34.2989
rwrist -1.06427
rhand -21.8677 -10.6292
rfingers 7.12502
rthumb 4.53652 -40.5606
lclavicle 2.56929e-014 2.85753e-014
lhumerus -41.908 8.24882 78.1377
lradius 26.8627
lwrist 19.1828
lhand -20.1809 14.6193
lfingers 7.12502
lthumb 6.16516 44.5096
rfemur -25.5593 -3.25585 26.6722
rtibia 33.0735
rfoot 4.02663 -5.27238
rtoes 2.08634
lfemur -49.4999 13.3014 -27.3801
ltibia 41.309
lfoot 21.0129 -5.2006
ltoes -23.936
417
root 38.4855 17.6935 -6.1975 395.599 -86.1094 -380.015
lowerback 22.0053 -1.10729 5.32784
upperback 7.04498 -0.824019 -0.680153
thorax -4.63267 -0.574002 -3.54948
lowerneck 6.27723 -0.591664 3.58776
upperneck -21.6186 -0.551944 0.942112
head -7.69184 -0.843458 -0.220702
rclavicle -1.22253e-014 -5.31749e-015
rhumerus -30.7576 -1.97736 -89.4611
rradius 34.3134
rwrist -1.05364
rhand -21.8599 -10.6739
rfingers 7.12502
rthumb 4.54407 -40.6052
lclavicle -1.22253e-014 -5.31749e-015
lhumerus -42.0898 8.38985 77.9964
lradius 26.642
lwrist 18.9985
lhand -20.1594 14.6566
lfingers 7.12502
lthumb 6.18591 44.5463
rfemur -24.7406 -3.35486 27.0611
rtibia 32.5981
rfoot 3.96871 -5.27908
rtoes 1.65006
lfemur -49.9302 13.4317 -27.7165
ltibia 40.054
lfoot 22.0967 -4.71548
ltoes -23.1013
418
root 38.369 17.6931 -6.19995 400.581 -86.1654 -385.131
lowerback 22.0242 -1.04153 5.52268
upperback 7.08137 -0.701828 -0.651358
thorax -4.5893 -0.514445 -3.66107
lowerneck 6.28292 -0.59845 3.58953
upperneck -21.6275 -0.556199 0.965951
head -7.69593 -0.848146 -0.212713
rclavicle 2.37548e-014 3.16068e-014
rhumerus -30.7893 -1.94715 -89.4826
rradius 34.3254
rwrist -1.02853
rhand -21.8445 -10.709
rfingers 7.12502
rthumb 4.5589 -40.64
lclavicle 2.37548e-014 3.16068e-014
lhumerus -42.2613 8.53956 77.8576
lradius 26.4271
lwrist 18.8428
lhand -20.1322 14.7077
lfingers 7.12502
lthumb 6.21219 44.5966
rfemur -23.9088 -3.44027 27.4415
rtibia 32.0968
rfoot 3.95759 -5.26906
rtoes 1.24296
lfemur -50.2785 13.5203 -27.9947
ltibia 38.7288
lfoot 23.082 -4.06676
ltoes -22.15
419
root 38.2505 17.6923 -6.20163 405.858 -86.215 -390.533
lowerback 22.0381 -0.972714 5.70309
upperback 7.11213 -0.578795 -0.626078
thorax -4.54872 -0.454432 -3.76834
lowerneck 6.29616 -0.601135 3.58965
upperneck -21.6354 -0.556097 0.981545
head -7.70095 -0.849734 -0.207511
rclavicle 1.49089e-015 3.32964e-015
rhumerus -30.8338 -1.91827 -89.5011
rradius 34.3554
rwrist -0.980041
rhand -21.8216 -10.7303
rfingers 7.12502
rthumb 4.58102 -40.6608
lclavicle 1.49089e-015 3.32964e-015
lhumerus -42.4312 8.7003 77.7195
lradius 26.2178
lwrist 18.7172
lhand -20.0923 14.7412
lfingers 7.12502
lthumb 6.25068 44.629
rfemur -23.0731 -3.50986 27.8009
rtibia 31.5828
rfoot 3.98714 -5.23818
rtoes 0.919584
lfemur -50.5479 13.5603 -28.2204
ltibia 37.3281
lfoot 23.9609 -3.3436
ltoes -21.1978
420
root 38.1303 17.6903 -6.20252 411.4 -86.247 -396.188
lowerback 22.0434 -0.903372 5.875
upperback 7.1369 -0.456954 -0.60339
thorax -4.50978 -0.394882 -3.87315
lowerneck 6.31265 -0.600514 3.59017
upperneck -21.6355 -0.552943 0.987156
head -7.70396 -0.848643 -0.205963
rclavicle 2.23633e-015 -1.08835e-014
rhumerus -30.8844 -1.90173 -89.514
rradius 34.3967
rwrist -0.93118
rhand -21.7874 -10.7506
rfingers 7.12502
rthumb 4.61406 -40.6804
lclavicle 2.23633e-015 -1.08835e-014
lhumerus -42.5994 8.86192 77.5895
lradius 26.0179
lwrist 18.6166
lhand -20.0531 14.7695
lfingers 7.12502
lthumb 6.28855 44.6562
rfemur -22.242 -3.56065 28.1405
rtibia 31.069
rfoot 4.05194 -5.18355
rtoes 0.647442
lfemur -50.7407 13.5488 -28.3866
ltibia 35.8525
lfoot 24.749 -2.61959
ltoes -20.311
421
root 38.0079 17.6861 -6.20264 417.131 -86.2493 -402.019
lowerback 22.0355 -0.836228 6.0432
upperback 7.15529 -0.338766 -0.579923
thorax -4.47079 -0.336915 -3.97394
lowerneck 6.32925 -0.596554 3.59055
upperneck -21.6246 -0.547363 0.980578
head -7.70325 -0.844818 -0.208684
rclavicle 3.27995e-015 1.58034e-014
rhumerus -30.9345 -1.89005 -89.521
rradius 34.4255
rwrist -0.870695
rhand -21.7654 -10.749
rfingers 7.12502
rthumb 4.63533 -40.6783
lclavicle 3.27995e-015 1.58034e-014
lhumerus -42.768 9.02196 77.4728
lradius 25.8307
lwrist 18.5367
lhand -20.0134 14.785
lfingers 7.12502
lthumb 6.32685 44.6705
rfemur -21.4203 -3.58984 28.4632
rtibia 30.5618
rfoot 4.14478 -5.10423
rtoes 0.438276
lfemur -50.8763 13.496 -28.5029
ltibia 34.3182
lfoot 25.4513 -2.0096
ltoes -19.6583
422
root 37.8834 17.6792 -6.20194 422.958 -86.2165 -407.931
lowerback 22.0111 -0.771478 6.21156
upperback 7.16965 -0.224123 -0.555516
thorax -4.42758 -0.280335 -4.0727
lowerneck 6.34733 -0.58766 3.59156
upperneck -21.6084 -0.536636 0.963868
head -7.701 -0.837423 -0.215316
rclavicle -5.96354e-016 7.85199e-015
rhumerus -30.9741 -1.8838 -89.5216
rradius 34.4307
rwrist -0.810435
rhand -21.7566 -10.7353
rfingers 7.12502
rthumb 4.64383 -40.6644
lclavicle -5.96354e-016 7.85199e-015
lhumerus -42.9319 9.18086 77.3709
lradius 25.6576
lwrist 18.4678
lhand -19.9767 14.791
lfingers 7.12502
lthumb 6.36234 44.6755
rfemur -20.6097 -3.59636 28.7702
rtibia 30.0641
rfoot 4.27155 -5.0025
rtoes 0.323296
lfemur -50.9678 13.4109 -28.5723
ltibia 32.757
lfoot 26.0712 -1.55789
ltoes -19.2854
423
root 37.7567 17.6709 -6.20054 428.751 -86.1391 -413.797
lowerback 21.9695 -0.709945 6.38679
upperback 7.18096 -0.112786 -0.52823
thorax -4.37859 -0.224952 -4.17118
lowerneck 6.36964 -0.575068 3.59232
upperneck -21.5856 -0.521082 0.943204
head -7.69722 -0.827033 -0.223646
rclavicle -1.23246e-014 -2.74323e-014
rhumerus -31.0033 -1.88239 -89.516
rradius 34.418
rwrist -0.765556
rhand -21.7522 -10.7468
rfingers 7.12502
rthumb 4.64809 -40.6758
lclavicle -1.23246e-014 -2.74323e-014
lhumerus -43.0909 9.32972 77.2881
lradius 25.5032
lwrist 18.4114
lhand -19.9437 14.7951
lfingers 7.12502
lthumb 6.39413 44.6786
rfemur -19.8046 -3.58404 29.0676
rtibia 29.5729
rfoot 4.41829 -4.88263
rtoes 0.244601
lfemur -51.0121 13.2811 -28.5642
ltibia 31.2231
lfoot 26.5901 -1.01924
ltoes -18.7466
424
root 37.6279 17.661 -6.19849 434.315 -86.0188 -419.422
lowerback 21.9099 -0.652984 6.56741
upperback 7.19078 -0.00718404 -0.499476
thorax -4.32206 -0.171859 -4.26937
lowerneck 6.39263 -0.554365 3.58313
upperneck -21.5591 -0.49349 0.932016
head -7.69213 -0.810829 -0.228231
rclavicle -5.26779e-015 -2.5842e-015
rhumerus -31.0092 -1.88647 -89.5048
rradius 34.3543
rwrist -0.719319
rhand -21.7776 -10.7437
rfingers 7.12502
rthumb 4.62348 -40.6732
lclavicle -5.26779e-015 -2.5842e-015
lhumerus -43.2407 9.47396 77.2215
lradius 25.3689
lwrist 18.3578
lhand -19.9205 14.8037
lfingers 7.12502
lthumb 6.4166 44.6865
rfemur -19.0068 -3.56523 29.3525
rtibia 29.0855
rfoot 4.59337 -4.74246
rtoes 0.194204
lfemur -51.0365 13.1188 -28.4934
ltibia 29.7759
lfoot 26.9907 -0.456797
ltoes -18.2015
425
root 37.4969 17.65 -6.19591 439.525 -85.8617 -424.681
lowerback 21.835 -0.600505 6.74917
upperback 7.19901 0.0918092 -0.472455
thorax -4.25963 -0.121506 -4.36806
lowerneck 6.41764 -0.527121 3.57238
upperneck -21.5293 -0.454859 0.930035
head -7.68614 -0.78995 -0.230475
rclavicle -3.47873e-015 -4.57205e-015
rhumerus -31.0073 -1.89123 -89.4933
rradius 34.2808
rwrist -0.680664
rhand -21.8085 -10.7589
rfingers 7.12502
rthumb 4.59364 -40.6891
lclavicle -3.47873e-015 -4.57205e-015
lhumerus -43.3768 9.62193 77.1606
lradius 25.2469
lwrist 18.2943
lhand -19.9055 14.8242
lfingers 7.12502
lthumb 6.43101 44.7066
rfemur -18.2158 -3.55311 29.6205
rtibia 28.6018
rfoot 4.80332 -4.58066
rtoes 0.163458
lfemur -51.0615 12.9422 -28.3756
ltibia 28.4766
lfoot 27.2634 0.184268
ltoes -17.5686
